# xmcd
#
# Track frame offsets: 
#        150
#        12710
#        22350
#        33337
#        44089
#        58116
#        70613
#        84268
#        98345
#        108628
#        128575
#        141405
#        150340
#        159127
#        170686
#        182883
#        196243
#        208873
#        222030
#        234182
#        247992
#
# Disc length: 3459 seconds
#
# Revision: 0
# Processed by: cddbd v1.5.2PL0 Copyright (c) Steve Scherf et al.
# Submitted via: ExactAudioCopyFreeDBPlugin 1.0
#
DISCID=1d0d8115
DTITLE=Foghorn Stringband - Outshine The Sun
DYEAR=2012
DGENRE=Country
TTITLE0=Be Kind To A Man While He's Down
TTITLE1=Humpback Mule
TTITLE2=Homestead On The Farm
TTITLE3=Salty River Road
TTITLE4=Going Home
TTITLE5=Horseshoe Road
TTITLE6=Sweeter Than The Flowers
TTITLE7=Come All You Virginia Gals
TTITLE8=Western Union
TTITLE9=Just A Few Old Memories
TTITLE10=Indian Ate The Woodchuck
TTITLE11=By The River
TTITLE12=Lover's First Quarrel
TTITLE13='Tits Yeux Bleus
TTITLE14=Whoa Mule
TTITLE15=Distant Land To Roam
TTITLE16=Outshine The Sun
TTITLE17=Jones' Waltz
TTITLE18=Gospel Ship
TTITLE19=Over The Garden Wall
TTITLE20=Mama Blues
EXTD=
EXTT0=
EXTT1=
EXTT2=
EXTT3=
EXTT4=
EXTT5=
EXTT6=
EXTT7=
EXTT8=
EXTT9=
EXTT10=
EXTT11=
EXTT12=
EXTT13=
EXTT14=
EXTT15=
EXTT16=
EXTT17=
EXTT18=
EXTT19=
EXTT20=
PLAYORDER=
